<?xml version="1.0" encoding="UTF-8"?>
<svg xmlns="http://www.w3.org/2000/svg" viewBox="0 0 1701.8 1663.2" preserveAspectRatio="xMidYMid slice">
<g fill="none" stroke="#181818" stroke-width="1" opacity="1">
<path d="M828.7,33.6c1.6,1.4,3.1,2.9,4.5,4.4c1.3,1.5,2.7,2.9,4.1,4.1c26.2,23.4,54.1,36.3,78.4,36.3l0,0c24.1,0,44.4-11.9,60.5-35.4c8.7-12.7,15.6-27.8,19.9-43h-0.8c-4.2,15-11.1,30-19.6,42.6c-16,23.2-36.1,35-59.9,35l0,0c-24.1,0-51.8-12.9-77.9-36c-1.4-1.2-2.7-2.7-4.1-4.1c-1.5-1.5-3-3.1-4.5-4.5c-11.7-10.3-24.4-19.7-36.6-28.8c-1.8-1.4-3.6-2.7-5.4-4.1H786c2.1,1.6,4.2,3.1,6.3,4.7C804.5,13.9,817,23.3,828.7,33.6z"/>
<path d="M51.7,109.6c17-15.8,34.6-32.2,45.8-55.6c5.7-11.9,11.3-30.7,13.9-54h-0.8c-2.5,23.1-8.1,41.8-13.7,53.7C85.6,76.9,68.1,93.2,51.1,109C31.4,127.4,11,146.3,0.9,176.3c-0.4,0.9-0.6,1.8-0.9,2.7v2.7c0.5-1.8,1.1-3.5,1.6-5.1C11.7,146.8,32,127.9,51.7,109.6z"/>
<path d="M910,41.9L910,41.9c8.3,0,16.4-2.9,23.8-8.6c7-5.2,10.4-10.6,14-16.2c1.5-2.4,3.1-4.8,4.9-7.3c1.4-3.2,2.6-6.6,3.6-10h-0.8c-1,3.2-2.1,6.4-3.4,9.5c-1.9,2.5-3.4,4.9-4.9,7.3c-3.5,5.5-7,10.7-13.7,15.9c-7.4,5.6-15.2,8.4-23.4,8.4l0,0c-21.9,0-42.9-19.5-61.4-36.6c-1.7-1.6-3.3-3.1-5-4.6h-1.2c1.8,1.7,3.7,3.4,5.5,5.1C866.6,22.4,887.8,41.9,910,41.9z"/>
<path d="M14.3,247.7c4-20.4,7.6-39.7,13.3-53.3c9.6-23.2,29.4-42.8,50.4-63.5c13-12.7,26.3-25.8,37.6-40.2c14.1-18,23.5-33.6,31.4-52c4.7-10.9,8.7-23.4,12.6-35.4c0.4-1.1,0.8-2.2,1.1-3.2h-0.8c-0.3,1-0.7,2-1,3c-3.8,12.1-7.8,24.6-12.5,35.4c-7.9,18.3-17.3,33.9-31.4,51.8c-11.3,14.3-24.6,27.5-37.5,40.1c-21.1,20.8-41.1,40.4-50.7,63.8c-5.7,13.7-9.4,33-13.3,53.5c-3.8,19.7-7.7,40.1-13.5,55c-0.1,0.1-0.1,0.2-0.1,0.4v2.1c0.2-0.8,0.6-1.4,0.9-2.1C6.7,287.8,10.6,267.4,14.3,247.7z"/>
<path d="M78.7,502c27.4,11,61.5,24.5,74.6,52.3c0.9,15.2-4.4,28.1-10.1,41.7c-8,19.1-17,40.8-11.9,74.6c3.9,25.7,19,42.2,36.5,61.3c7.3,7.9,14.6,16,21.7,25.3c18.5,24.3,31.1,51.7,40.9,75.4c9.9,23.5,17.6,42.1,43.4,48.3c15.5,3.7,37,6.3,51.8,7.8c8.2,0.9,15.8,1.4,22.6,1.4c11.4,0,21.2-1.2,29.4-3.7c17.5-5.2,28.7-19.5,42.7-37.5c4.2-5.4,8.5-10.9,13.4-16.7c3.3-4,7.7-8.4,12.3-13.1c9.7-9.7,19.6-19.8,22.4-27.9c1-3.1,0.7-6,0.5-9.2c-0.2-2.5-0.5-5.2-0.2-8.4l0.1-0.2l-0.1-0.1c-9.4-12.4-20.8-22.3-31.8-32c-18.7-16.4-36.5-31.8-43.1-57.3c-3.5-13.4-2.2-27.7,3.9-43.8c6.5-17,21.8-35.7,43-52.6c9.6-7.6,19.7-15.5,30.4-23.9c49.3-38.4,105.1-81.9,135.6-119.9l0.1-0.2c1-4.7,0.7-10-0.7-15.8c-4-15.9-16.4-34.9-34.2-52c-17-16.2-36.3-28.4-51.7-32.6c-1.2-0.4-3.7-1-6.3-1.5c-20.5-4.6-41.8-1.4-62.3,1.7c-17.8,2.7-34.6,5.2-51,3.1c-35.3-4.7-60.7-28.3-69.7-64.9c-11.8-48,20.8-78.2,52.4-107.3c23.2-21.6,47.4-43.8,53.7-73.2c6-27.7-1.8-57.5-7-77.3c-2.1-8-4.6-15.9-7.3-23.8h-0.8c2.8,8,5.2,16,7.4,24.1c5.1,19.6,13,49.4,7,76.9c-6.3,29.1-30.3,51.3-53.5,72.8c-31.7,29.3-64.5,59.6-52.6,108.1c9,36.9,34.8,60.7,70.4,65.4c16.4,2.1,33.3-0.4,51.1-3c20.5-3.1,41.6-6.2,62.1-1.7c2.5,0.5,5,1.2,6.3,1.5c30.6,8.4,76.8,49.7,85.2,83.9c1.5,5.8,1.7,11,0.8,15.5c-30.5,37.9-86.2,81.4-135.4,119.7c-10.8,8.4-20.9,16.3-30.5,23.9c-21.3,17-36.6,35.7-43.2,53c-6.2,16.2-7.5,30.7-4,44.2c6.8,25.7,24.5,41.3,43.3,57.7c11,9.6,22.2,19.5,31.6,31.7c-0.3,3.2-0.1,6,0.1,8.4c0.4,3.2,0.6,5.9-0.4,8.8c-2.7,7.9-12.6,18-22.2,27.7c-4.6,4.7-9,9.1-12.3,13.1c-4.9,5.8-9.3,11.3-13.4,16.8c-14,17.9-25,32.1-42.3,37.2c-13.2,3.9-30.1,4.7-51.7,2.3c-14.9-1.6-36.4-4.2-51.8-7.8c-25.4-6-33.1-24.5-42.9-47.8c-9.9-23.7-22.4-51.2-40.9-75.6c-7.1-9.3-14.5-17.4-21.7-25.3c-17.5-19-32.5-35.4-36.3-60.9c-5.1-33.6,3.9-55.2,11.8-74.2c5.7-13.7,11.1-26.7,10.2-42.1l-0.1-0.2c-13.2-28-47.5-41.8-75-52.7c-7.5-3-15.2-6.1-23.7-7.9c-19.5-4.2-38-6.5-55.4-7.2v0.8c17.3,0.6,35.8,3,55.2,7.1C63.6,496,71.3,499.1,78.7,502z"/>
<path d="M478.8,22.9c2.1,8.1,4.6,16.3,7,24.2c5.2,17.5,10.1,34.1,12,48.9c1.5,10.6,1.5,21.5,0.1,29.1c-4.1,22.9-19.5,40.7-34.3,58c-17.1,19.8-34.7,40.3-36,68.8c1.8,25.4,30.4,29.1,60.7,32.9c5.5,0.8,11.3,1.5,16.9,2.4c22.2,3.5,47.7,10.6,73.8,20.4c9.1,3.5,17.9,7.8,26.5,12c16.3,8.1,31.7,15.7,49.7,17.8c2.3,0.2,4.6,0.4,7,0.4c12.2,0,22.8-3.4,31.9-6.7c9.2-3.2,17.1-6.7,24.8-10.2c16.5-7.3,32-14.1,55.9-16.2c4.2-0.5,8.6-0.6,12.9-0.6c26,0,47.8,6.8,68.9,13.4c18.2,5.8,35.4,11.1,53.3,11.1c3.5,0,7.1-0.2,10.4-0.6c27.1-3.4,48-17.5,63.7-43c13.9-22.5,21.8-51,28.5-78.4c1.9-8,5.4-23.1,6.5-34c1.2-10.3-0.4-17.8-5-22.9c-8.2-9.5-24.7-10.1-43.7-10.7c-8.7-0.3-17.6-0.6-26.5-1.8c-37.5-4.8-69-9.7-103.8-24.2c-28.7-11.9-57.3-26.8-76.4-37.2c-32-17.5-68.2-39.2-93.7-75.7h-0.9c25.7,36.9,62,58.8,94.3,76.4c19,10.4,47.7,25.2,76.4,37.2c34.9,14.5,66.4,19.4,104,24.3c8.9,1.1,17.9,1.4,26.5,1.8c18.9,0.6,35.2,1.1,43.2,10.4c4.3,5,5.9,12.3,4.7,22.4c-1.2,10.9-4.6,25.8-6.5,33.9c-13.2,54.6-32.2,113.4-91.5,120.9c-3.4,0.4-6.8,0.6-10.3,0.6c-17.8,0-34.9-5.4-53.1-11.1c-21.1-6.6-42.9-13.4-69.1-13.4c-4.3,0-8.7,0.2-13,0.6c-24.1,2.1-39.6,9.1-56.2,16.4c-7.7,3.4-15.6,6.9-24.7,10.1c-9,3.2-19.6,6.5-31.7,6.5c-2.4,0-4.7-0.1-6.9-0.4c-17.8-1.9-33.1-9.6-49.4-17.6c-8.6-4.2-17.3-8.6-26.5-12c-26.2-9.9-51.8-16.9-74-20.5c-5.6-0.9-11.4-1.6-16.9-2.3c-29.9-3.9-58.2-7.5-60-32.3c1.4-28.1,18.9-48.5,35.9-68.2c15-17.3,30.4-35.3,34.6-58.3c1.4-7.7,1.3-18.7-0.1-29.4c-2-14.9-7-31.4-12.2-49c-2.4-8-4.8-16.2-7-24.3c-1.4-5.2-2.9-10.6-4.4-15.8c-0.7-2.2-1.2-4.6-1.9-6.9h-0.8c0.7,2.4,1.4,4.8,2,7.1C475.9,12.3,477.4,17.6,478.8,22.9z"/>
<path d="M55,52.4C63,40,70.2,25,70.3,0h-0.8c-0.2,24.8-7.3,39.7-15.2,52C44.2,67.7,29.5,77,14,87c-4.7,3-9.4,6-14,9.3v0.9c4.7-3.3,9.6-6.4,14.4-9.5C30,77.7,44.7,68.2,55,52.4z"/>
<path d="M530.5,70.7c4.8,10.7,9.8,21.7,11.4,33.2c4.7,31.5-11.6,52-27.3,71.8c-10.8,13.5-20.9,26.2-24,41.9c-0.8,4-0.6,6.4-0.4,9.5c0.1,1.6,0.2,3.4,0.2,5.8v0.1c4,11.1,16,19,25.4,23.6c33.9,16.8,89,24.7,129.2,30.4c6.1,0.8,12.1,1.3,18.3,1.3l0,0c15.6,0,30.1-2.7,45.5-5.4c16.4-3,33.4-6.1,53-6.1c5.2,0,10.5,0.2,15.6,0.6c1.1,0.1,4,0.3,7.8,0.5c5.5,0.3,12.5,0.7,17.4,1.1c16.4,1.2,29.4,4.1,41.9,7c16.7,3.7,32.4,7.3,55.7,7.3c2.4,0,5-0.1,7.5-0.1c18.5-2.9,35.5-22.4,42.3-48.6c5.6-21.6,4.3-50.4-16.1-66.4c-24-18.7-94-35.1-131.5-38.1c-8-0.7-14.7-0.8-21.1-0.8c-7.2-0.1-14.6-0.1-24.2-0.9c-25.9-2.4-47.3-12.6-71.7-34.1c-30.1-26.8-46.5-47.5-69.8-88.5c-2.5-4.4-4.9-9.9-7.1-15.9h-0.9c2.3,6.2,4.7,11.8,7.3,16.3c23.4,41.1,39.7,61.8,70,88.7c24.4,21.7,46,32,72.1,34.3c9.7,0.9,17.1,0.9,24.3,0.9c6.7,0.1,13,0.1,21.1,0.8c37.5,3.1,107.2,19.3,131.2,38c20.1,15.6,21.2,44.1,15.8,65.5c-6.7,25.8-23.5,45.1-41.6,48c-2.5,0.1-5,0.1-7.4,0.1c-23.1,0-38.9-3.6-55.6-7.3c-12.6-2.8-25.5-5.7-42-7c-4.9-0.4-11.9-0.8-17.4-1.1c-3.8-0.2-6.7-0.4-7.8-0.4c-5.2-0.5-10.4-0.7-15.7-0.7c-19.6,0-36.7,3.1-53.1,6.1c-15.3,2.8-29.8,5.4-45.4,5.4l0,0c-6.3,0-12.2-0.4-18.2-1.2c-40.2-5.8-95.3-13.6-129-30.4c-9.2-4.5-21-12.2-24.9-23.1c-0.1-2.4-0.2-4.1-0.2-5.8c-0.3-3.1-0.5-5.4,0.3-9.3c3.1-15.4,13.2-28.1,23.8-41.6c15.9-19.9,32.2-40.6,27.5-72.4c-1.7-11.6-6.7-22.7-11.5-33.4c-1.9-4.2-3.9-8.6-5.6-12.9c-6.2-15.4-13.4-36.1-18-57.5h-0.8c4.7,21.5,11.9,42.4,18.1,57.9C526.6,62.2,528.6,66.5,530.5,70.7z"/>
<path d="M81.8,388.8c10.9-12.1,20.6-25.1,30.8-38.8c16.3-21.7,33.1-44.1,54.8-62.6c1.5-1.4,3.1-3,4.5-4.5c1.3-1.4,2.7-2.8,4.1-4.1c14.2-12.5,30.4-22.5,46-32.1c10.8-6.7,22.1-13.6,32.7-21.4c8.4-6.2,16.8-12.7,24.9-18.9c12.3-9.6,25.1-19.3,37.9-28.2c6.1-4.2,12.4-8.2,19.1-12.4c32.8-20.9,70-44.6,75.6-87.5c3-22.6-3-51.8-15.6-78.1h-0.8c12.7,26.2,18.6,55.4,15.7,78c-5.7,42.5-42.6,66.1-75.3,86.9c-6.7,4.2-13,8.3-19,12.4c-12.9,8.9-25.7,18.8-37.9,28.2c-8.1,6.3-16.5,12.7-25,18.9c-10.5,7.7-21.7,14.7-32.6,21.4c-15.7,9.7-31.9,19.8-46.1,32.3c-1.5,1.3-2.9,2.8-4.2,4.2c-1.4,1.5-2.8,3.1-4.4,4.4c-21.8,18.6-38.6,41.1-54.9,62.8c-10.3,13.7-20,26.7-30.9,38.8C59.6,412.3,31,428.6,0,435.1v0.8C31.3,429.3,60,412.9,81.8,388.8z"/>
<path d="M33.4,358.3c10.6-15.4,10.6-43.4,9.5-66C42,274,42.3,239.1,54.3,210c9.3-22.2,31.2-41.9,52.4-60.9c3.2-2.9,6.4-5.8,9.6-8.7c42.5-38.8,63.6-73.6,82.2-113.9c1.6-3.4,2.9-7.1,4.3-10.6c1.6-4.4,3.4-8.9,5.6-13.3c0.4-0.9,0.9-1.8,1.3-2.6h-0.9c-0.4,0.8-0.8,1.5-1.2,2.2c-2.2,4.4-3.9,9-5.5,13.4c-1.4,3.5-2.7,7.1-4.4,10.6c-18.5,40.3-39.5,75-82,113.7c-3.1,2.9-6.4,5.7-9.6,8.6c-21.3,19.1-43.4,38.9-52.6,61.3c-12,29.1-12.3,64.2-11.4,82.5c1.1,22.6,1,50.4-9.4,65.6c-7.5,10.9-19.6,18.7-32.7,25.4v0.9C13.4,377.3,25.7,369.5,33.4,358.3z"/>
<path d="M11.7,21.6C16.9,16.3,19,8.1,19,0h-0.9c0,8-2.2,16.1-7,21.1C7.8,24.6,4,26.5,0,26.5v-0.1v0.8l0,0C4.2,27.3,8.3,25.3,11.7,21.6z"/>
<path d="M254,12.5c-11.2,13.2-19.4,31.3-27.3,48.7c-1.2,2.7-2.4,5.2-3.6,7.9c-11.6,24.9-25.9,55.9-41.6,77.1c-8.5,11.6-22.5,19.9-37.4,28.7c-21.1,12.4-42.8,25.4-51.3,49.1c-3.1,8.6-3.1,17.9-0.1,29.7c3,6.5,8.1,9.9,15.2,9.9l0,0c11.7,0,25.5-9,31.1-13.9c11.3-9.5,21.2-22.6,30.7-35.5c5.1-6.8,10.4-13.9,15.8-20.4c2.7-3,11.7-13.4,19.3-17.9c18-10.6,41.2-18.8,65.6-27.4c34-11.9,69.1-24.2,91-44.3c11.7-10.5,18.6-27,19.2-45.2c0.5-19.5-6.2-37.9-19.1-52.1c-2.3-2.5-4.8-4.9-7.4-7h-1.3c2.8,2.2,5.6,4.8,8.1,7.5c12.7,13.9,19.5,32.2,18.9,51.4c-0.5,17.9-7.4,34.3-18.8,44.7c-21.8,19.9-56.9,32.2-90.8,44.1c-24.5,8.6-47.7,16.8-65.8,27.4c-7.8,4.7-16.9,15-19.5,18.1c-5.5,6.4-10.8,13.6-15.9,20.5c-9.5,12.7-19.3,25.8-30.5,35.2c-5.6,4.8-19.2,13.7-30.7,13.7c-6.8,0-11.6-3.1-14.4-9.4c-2.9-11.4-2.8-20.7,0.2-29.1c8.4-23.4,30-36.2,51-48.6c14.9-8.8,29-17.2,37.7-29c15.6-21.2,30-52.3,41.6-77.2c1.2-2.7,2.4-5.3,3.6-8c7.9-17.4,16.1-35.3,27.3-48.5c4.2-5,9.1-9.3,14.4-13h-1.4C262.7,3.6,258,7.8,254,12.5z"/>
<path d="M565.9,214.3l0.1,0.1c1.4,1.5,2.2,3.5,3,5.5l0.2,0.4l0.1,0.2c5.8,5.4,14.4,8.4,24.3,8.4l0,0c14.1,0,28.1-6,34.9-14.7c4.1-5.4,5.4-11.4,3.9-17.7c-3-11.7-14.2-15.5-26.3-18.6l-0.1-0.1l-0.1,0.1c-20.6,3-42,15.6-40.1,36.3V214.3z M606,178.7c11.9,3.1,22.7,6.8,25.7,18c1.5,6,0.2,11.9-3.8,17c-6.7,8.6-20.5,14.5-34.3,14.5l0,0c-9.7,0-18.1-3-23.7-8.2l-0.1-0.3c-0.8-2.1-1.7-4.2-3.1-5.8C564.7,191,591.5,180.8,606,178.7z"/>
<path d="M779.6,227.9l0.3,0.5l0.1,0.1c12.7,8,33.7,13.3,52.2,13.3l0,0c12.2,0,33.5-2.4,39-18.9v-0.1c0.1-5.7-2-10.8-6.3-15.2c-8-8.3-24-13.3-41.6-13.3c-22.4,0-46.5,8.6-46.8,27.7v0.1l0.2,0.1C778.1,223.7,778.9,225.9,779.6,227.9z M823.4,195.1c17.4,0,33.2,5.1,41.1,13.1c4.1,4.2,6.1,9.1,6,14.5c-5.4,15.9-26.4,18.3-38.3,18.3l0,0c-18.3,0-39-5.2-51.7-13.1l-0.1-0.4c-0.8-2-1.6-4.1-3-5.7C777.8,203.4,801.5,195.1,823.4,195.1z"/>
<path d="M217.9,604.5c-4.5,19.2-9.1,39.1-7.3,68.8c14.9,51.7,32.6,90.8,53.7,119.5c5,6.7,11,14.3,18.7,20.4c11,8.8,26.6,14,41.6,14l0,0c15.2,0,28.1-5.2,36.5-14.8c9.3-10.6,12.7-25.8,10.2-45.2c-1.5-10.9-5.4-22.3-9.3-33.4c-3.9-11-7.9-22.4-9.3-33.3c-5.7-42.2,12.3-85.9,48.1-116.8c15.2-13.2,30.8-23.9,45.9-34.2c16.3-11.3,33.2-22.9,49.2-37.4c24.3-22,51.8-47,56.3-84.7v-0.1v-0.1c-2.9-17.8-8.4-36.2-28.7-49.3c-11.5-7.5-24.2-11-40-11c-13.5,0-27.4,2.5-42.1,5.2c-15.9,2.8-32.3,5.8-49.3,5.8c-4.2,0-8.3-0.2-12.3-0.5c-8.1-0.8-18.3-3.2-29-5.9c-14.4-3.5-29.3-7.1-41.1-7.1c-2.5,0-4.7,0.2-6.8,0.5c-15.9,2.4-32.8,16.2-45.7,28c-21.5,19.5-41.8,39.9-45.2,56.6c-1.3,6.5-0.9,17-0.1,24.7c1.2,11.6,3.7,21.4,6.1,30.8c4.2,16.9,8.6,34.3,6.4,62.2C223.4,580.9,220.8,592.4,217.9,604.5z M218.8,504.9c-2.4-9.4-4.8-19.2-6-30.7c-0.8-7.6-1.2-18,0-24.4c3.3-16.6,23.5-36.8,44.9-56.3c12.9-11.6,29.6-25.3,45.3-27.8c2-0.3,4.2-0.4,6.7-0.4c11.7,0,26.6,3.6,40.9,7.1c10.7,2.6,20.9,5.1,29,5.8c4,0.4,8.1,0.5,12.4,0.5c17.1,0,33.6-2.9,49.4-5.9c14.7-2.6,28.6-5.1,42-5.1c15.6,0,28.2,3.5,39.7,10.9c20,13,25.4,31,28.3,48.8c-4.5,37.3-31.8,62.2-56,84.2c-16,14.5-32.9,26-49.1,37.2c-15.2,10.4-30.7,21.1-46,34.4c-36,31.1-54.1,75-48.4,117.5c1.5,10.9,5.5,22.3,9.4,33.4c3.9,11,7.9,22.5,9.3,33.3c2.6,19.2-0.8,34.2-10,44.6c-8.2,9.4-20.9,14.5-35.9,14.5l0,0c-14.9,0-30.3-5.2-41.2-13.8c-7.5-6.1-13.6-13.7-18.5-20.3c-21.2-28.6-38.7-67.6-53.6-119.2c-1.9-29.5,2.8-49.4,7.3-68.4c2.9-12.2,5.5-23.8,6.5-37.4C227.4,539.3,223.1,521.8,218.8,504.9z"/>
<path d="M267.2,602.5c0.8,3.5,1.4,7,2,10.9c2.1,13.6,4.7,29.1,18.6,36.4l0.1,0.1h0.1c16.9-1.2,27.6-16.3,38.9-32.2c4.1-5.7,8.2-11.6,12.7-16.7c25-28.8,53.1-48,80.3-66.5c19.1-13,37.2-25.4,53.2-40.3c5.1-2.5,8.6-7,11.9-11.2c2.5-3.2,5.1-6.6,8.6-9.2c14.6-18.3,19.5-39.7,12.3-54.4c-4.5-9.3-15.7-20.5-43.7-20.5c-3.8,0-7.7,0.2-11.8,0.6c-9,0.9-19.3,2.8-30.1,4.8c-12,2.2-25.7,4.7-39.4,6.1c-2.9,0.3-5.6,0.5-8.3,0.9c-36.7,3.7-58.8,6-80.9,32c-15.7,18.6-24.1,41.5-26.4,72.3c-1.4,19.7-0.3,41.3,0.7,60.3C266.6,585.4,267.1,594.4,267.2,602.5z M266.2,515.6c2.3-30.6,10.7-53.4,26.2-71.8c21.8-25.9,42.6-28,80.3-31.9c2.7-0.2,5.4-0.5,8.3-0.8c13.8-1.5,27.4-4,39.5-6.1c10.8-1.9,21.1-3.9,30-4.7c4.1-0.4,8-0.7,11.7-0.7c27.5,0,38.6,10.9,43,20.1c6.9,14.5,2.2,35.6-12.2,53.5c-3.4,2.7-6.1,6-8.7,9.3c-3.4,4.5-6.6,8.6-11.6,11l-0.1,0.1c-16,15-34.1,27.3-53.2,40.3c-27.3,18.6-55.3,37.7-80.4,66.7c-4.5,5.1-8.6,11-12.7,16.7c-11.2,15.7-21.8,30.7-38.3,31.8c-13.6-7.1-15.9-21.7-18.1-35.7c-0.6-3.9-1.2-7.5-1.9-10.9c-0.1-8-0.7-17-1.1-26.5C265.9,556.9,264.7,535.3,266.2,515.6z"/>
<path d="M777.3,508.4c6,56,11.7,109,55.4,146.9c29.4,25.4,76.9,52.5,122.3,52.5l0,0c27.7,0,50.5-10.3,67.7-30.6c14.9-17.6,22.5-38.2,31.3-62.1c0.9-2.7,1.9-5.3,2.9-8.1c1.8-4.6,3.5-9.1,5.2-13.6c9.8-25.8,19-50.1,21.4-70.4c5.1-44.5-11-62.5-31-79.8c-31.1-27-71.7-29-114.6-31.1c-10.1-0.5-22.2-1.6-34.9-2.8c-20-1.8-42.6-3.8-61.5-3.8c-20.4,0-33.8,2.3-41.1,7.1c-30.4,20.2-26.8,69.2-23.9,89.2L777.3,508.4z M800.9,413.4c7.1-4.8,20.4-7.1,40.6-7.1c18.9,0,41.5,2.1,61.5,3.9c12.7,1.1,24.7,2.2,34.9,2.7c42.8,2.1,83.2,4.2,114.1,31c19.9,17.2,35.9,35,30.8,79.2c-2.3,20.1-11.6,44.4-21.3,70.1c-1.7,4.5-3.5,9.1-5.1,13.7c-1.1,2.7-2.1,5.4-3,8.1c-8.8,23.8-16.4,44.3-31.3,61.9c-17,20.1-39.5,30.3-67.1,30.3c-45.2,0-92.6-27.1-121.8-52.4c-43.5-37.6-49.1-90.4-55.1-146.3l-0.8-6.6C774.4,481.8,770.9,433.2,800.9,413.4z"/>
<path d="M819,517.6c5.2,48.4,9.7,90.1,48.9,121.1c18.2,14.5,51,31.3,83.5,31.3l0,0c16.2,0,29.8-4.2,40.6-12.5c30.5-23.7,43.8-72.8,45.9-107.8c2.4-40.3-12.4-75.8-39.6-94.7c-25-17.4-56.7-19.2-90.4-21c-7.4-0.4-14.7-0.8-22-0.8c-21.1,0-47.2,2.7-60.5,23.2c-7.7,15.6-7.2,34-6.7,51.7C818.9,511.4,819,514.5,819,517.6z M826.2,457c13.1-20.2,38.9-22.8,59.8-22.8c7.3,0,14.6,0.4,22,0.8c33.4,1.8,65.1,3.5,89.9,20.8c26.9,18.8,41.6,54,39.2,94c-2.1,34.8-15.3,83.8-45.7,107.2c-10.6,8.2-24.1,12.4-40.1,12.4l0,0c-32.3,0-64.9-16.9-83.1-31.3c-38.8-30.8-43.1-70.4-48.5-120.5c-0.1-3.1-0.1-6.1-0.3-9.3C819.2,490.6,818.7,472.4,826.2,457z"/>
<path d="M337.9,509.9l0.2,0.1c1.2,0.8,2.2,1.9,3.2,2.9c1.2,1.3,2.5,2.7,4,3.4l0.1,0.1h0.2c22.4-4,47.8-15.6,66.4-30.3c7.4-5.8,16-13.8,17.7-23.8l0.1-0.2l-0.1-0.2c-1-1.5-2.4-2.8-3.7-4.1c-1-0.9-2-1.8-2.8-2.8L423,455h-0.2c-3.3-0.4-6.9-0.5-10.5-0.5c-19.5,0-46,5.9-61.9,22.4c-8.7,9.1-12.9,20.2-12.4,32.9V509.9z M350.9,477.4c15.7-16.3,42-22.1,61.3-22.1c3.5,0,7,0.2,10.3,0.5c0.9,1,1.8,2,2.7,2.8c1.3,1.2,2.5,2.4,3.5,3.8c-1.7,9.7-10.1,17.5-17.3,23.1c-18.5,14.6-43.7,26.2-65.9,30.1c-1.4-0.8-2.5-1.9-3.6-3.2c-1-1.1-2-2.1-3.2-3C338.3,497.1,342.3,486.3,350.9,477.4z"/>
<path d="M900.9,616.7c13.1,8.5,27.7,13.1,41.3,13.1l0,0c17.9,0,32.9-7.7,43.5-22.4c24.8-34.1,13.6-98.7-21.9-125.6c-9.6-7.4-26.1-16.1-49.6-16.1c-5.5,0-11.2,0.5-16.9,1.5c-24.8,4.2-37.7,23.8-37.3,56.7C860.3,548.8,866.1,594.1,900.9,616.7z M897.4,468c5.7-0.9,11.3-1.4,16.8-1.4c23.3,0,39.6,8.6,49.2,15.9c16.7,12.7,28.8,34.5,33.1,59.9c4.2,24.8-0.1,48.9-11.5,64.7c-10.4,14.4-25.3,22-42.8,22l0,0c-13.4,0-28-4.5-40.9-12.9c-34.4-22.4-40.2-67.4-40.6-92.2C860.3,491.5,873,472.1,897.4,468z"/>
<path d="M99.3,836.9c3.2,5.9,6.4,11.6,10.1,16.2l0.2,0.2c5.1,6.7,13.9,17.8,26,15.9c13.1-1.9,30.4-17.5,27.3-40.4c-2.5-18.3-14.7-31.7-38.6-42.1c-1.5-0.6-3.1-1.4-4.7-2c-11.5-4.8-22.4-9.4-27.4-20.4c-5.2-21.7-6.2-51-7.3-82c-0.9-25.7-1.8-52.4-5.3-75.1c-6.7-43.8-29.1-69.9-68.5-79.9c-3.4-0.9-7.1-1.7-10.9-2.2v0.8c3.8,0.5,7.4,1.3,10.7,2.2c39.1,9.8,61.3,35.7,67.9,79.2c3.4,22.7,4.4,49.3,5.3,75c1.1,31.1,2.1,60.4,7.3,82.3c5.2,11.3,16.2,15.9,27.9,20.8c1.6,0.7,3.1,1.3,4.7,2c23.6,10.3,35.7,23.5,38.1,41.5c3.1,22.4-13.7,37.6-26.5,39.5c-11.7,1.8-20.2-9.1-25.3-15.5l-0.2-0.2c-3.7-4.7-6.8-10.3-10-16.2C89.7,818.1,79.2,799,49,804c-14.3,2.3-30.3,9.9-49,23.1v1c18.8-13.3,34.8-21,49.1-23.3C78.7,799.9,89.2,818.8,99.3,836.9z"/>
<path d="M19.6,732.3c17.5-19.2,26.8-47.7,25.6-78.1C44,624.9,33,598.1,15.8,582.5c-5.1-3.7-10.5-6.1-15.8-7.4v0.8c5.2,1.4,10.4,3.8,15.3,7.2c17.1,15.6,28,42.2,29.1,71.2c1.2,30.2-8.1,58.5-25.4,77.6c-5.8,6.3-12.3,11.6-19,16.3v0.9C7,744.3,13.7,738.9,19.6,732.3z"/>
<path d="M728.3,737.4c-0.8-5.2-3.2-11.6-5.2-16.6c-16.6-41.4-55.7-84.8-84.1-109.4c-19.5-16.8-35.6-26.7-48-29.1c-2.7-0.6-5.5-0.9-8.6-0.9c-33.9,0-75.4,34.4-78,64.6c0.1,1.5,0.5,3,0.9,4.4c0.5,2.2,1.1,4.5,0.8,6.9v0.1l0.1,0.1c12,28.3,25.8,55,40.7,79.5c6.7,11.1,13.5,21.7,22.4,30.6c21.5,21.5,59,36.6,91,36.6l0,0c17.7,0,32.5-4.5,44-13.1C723.6,776.6,731.6,758.5,728.3,737.4z M660.3,803.5L660.3,803.5c-31.8,0-69-15-90.4-36.4c-8.8-8.8-15.6-19.4-22.4-30.4c-14.9-24.5-28.5-51.1-40.6-79.3c0.2-2.5-0.4-4.9-0.9-7.1c-0.4-1.4-0.7-2.9-0.9-4.2c2.7-29.8,43.8-63.8,77.3-63.8c3,0,5.8,0.2,8.4,0.8c12.3,2.5,28.3,12.3,47.7,29c28.3,24.5,67.2,67.8,83.8,109.1c2,5,4.4,11.2,5.2,16.4c3.2,20.8-4.8,38.7-23.8,53C692.5,799.1,677.8,803.5,660.3,803.5z"/>
<path d="M654.2,671.1c-17-15.6-37.3-26.8-53.1-29.3c-2.9-0.5-5.8-0.8-8.5-0.8c-9.8,0-17.6,3.1-23.4,9.1c-6.8,7-10.1,18-9.6,31c6.9,29.7,13.9,53.8,34.7,70.8c13.2,10.9,33.4,17.9,51.5,17.9l0,0c21.7,0,36.7-10,41.2-27.3c1.3-5.1,1.1-12.6,0.3-17.7C684.8,707.6,672.7,688,654.2,671.1z M686.3,742.3c-4.4,17-19,26.7-40.4,26.7l0,0c-17.9,0-37.9-7-51-17.6c-20.6-16.9-27.5-40.8-34.4-70.3c-0.5-12.7,2.8-23.5,9.4-30.4c5.5-5.8,13.3-8.7,22.8-8.7c2.6,0,5.4,0.2,8.4,0.7c32.7,5.2,80,46.1,85.6,82.4C687.4,730,687.6,737.3,686.3,742.3z"/>
<path d="M844.4,805.7l-0.1-0.1l-0.2-0.1c-2.2-0.3-4.2-0.4-6.3-0.4c-4.5,0-8.9,0.7-13.7,2.1c-25,7.3-50.1,28.9-58.4,50.3c-5.9,15-3.4,31.7-1.1,47.8c2.2,14.9,4.2,28.9,0.1,41.2c-6.4,19-23.5,31-40,42.5c-17.5,12.3-35.5,24.9-39.9,45.8c-2.7,14.8,1.2,28.8,11.1,40.5c13.9,16.6,39.5,27.4,65,27.4l0,0c16.7,0,31.3-4.5,42.4-12.8c8.7-6.5,14.7-15.6,21-25.1l1-1.5c6.3-12.4,8.3-27.2,10.6-43.1c1.9-13.7,4-28,8.8-42.1c2.9-8.3,6-15.3,8.9-22c9-20.6,16.7-38.5,13-82.3C864.6,848.7,860.2,818.2,844.4,805.7z M852.9,955.8c-3,6.8-6,13.7-8.9,22.1c-4.8,14.2-6.8,28.4-8.8,42.2c-2.2,15.7-4.4,30.6-10.5,42.8l-0.9,1.4c-6.6,9.9-12.3,18.4-20.9,25c-10.8,8.3-25.4,12.6-41.9,12.6c-25.2,0-50.6-10.6-64.4-27c-9.7-11.6-13.5-25.4-10.9-39.9c4.4-20.5,21.5-32.5,39.6-45.2c16.7-11.7,33.8-23.8,40.3-42.9c4.2-12.6,2.2-26.7,0-41.6c-2.4-16-4.8-32.6,1-47.4c8.2-21.2,33.1-42.6,57.8-49.8c4.8-1.4,9-2,13.5-2c2,0,4,0.1,6.1,0.4c15.5,12.4,19.9,42.6,22.1,67.5C869.6,917.6,861.9,935.2,852.9,955.8z"/>
<path d="M118.6,962.1c-3.8-3.3-8.1-5-12.8-5c-7.9,0-16.6,5-24.1,13.6c-9.1,10.6-14.2,24.4-12.6,34.3c3.6,16.9,19,25.7,32.3,25.7l0,0c9.3,0,17.4-4.1,22.7-11.3C134.9,1004.6,131.9,973.5,118.6,962.1z M123.5,1018.9c-5.2,7.1-13,11-22.1,11l0,0c-13,0-28-8.6-31.5-25.1c-1.5-9.6,3.5-23.2,12.5-33.7c7.2-8.4,15.8-13.2,23.4-13.2c4.5,0,8.6,1.5,12.3,4.7C131.2,973.9,134.1,1004.4,123.5,1018.9z"/>
<path d="M405.8,1065.9c-0.6-1.2-1.3-2.4-1.6-3.8l-0.1-0.1l-0.1-0.1c-3.1-2.2-6.7-3.4-10.4-3.4c-5.7,0-11.6,2.7-15.8,7.3c-3.9,4.2-5.8,9.5-5.4,14.7l0.1,0.1c2.8,5.5,7.5,8.6,13.5,8.6l0,0c9.3,0,20.5-8.1,21.5-18.8v-0.1v-0.1C407.3,1068.7,406.5,1067.3,405.8,1065.9z M386.1,1088.4L386.1,1088.4c-5.6,0-10.2-2.9-12.7-8.1c-0.5-5,1.4-10,5.1-14.1c4-4.3,9.7-7,15.2-7c3.5,0,6.8,1.2,9.7,3.2c0.4,1.4,1.1,2.6,1.7,3.8c0.7,1.4,1.5,2.7,1.7,4.1C405.8,1080.6,395.1,1088.4,386.1,1088.4z"/>
<path d="M1470.8,14.6c19.1,9.3,41.5,10.2,60,2.6c9.3-3.9,17.2-9.8,23.2-17.2h-0.9c-5.8,7.1-13.4,12.7-22.5,16.4c-18.4,7.6-40.6,6.7-59.5-2.5c-6.1-2.9-11.9-7.6-17.5-13.9h-1.1C1458.4,6.7,1464.4,11.5,1470.8,14.6z"/>
<path d="M795.2,47c7.4,5.2,14.5,10.9,21.4,16.2c16.6,13,32.2,25.1,49.4,30.9c19.3,9.6,37.7,14.4,55.3,14.4c14.6,0,28.6-3.3,41.7-10C1001.8,79,1023.7,36.4,1032,0h-0.8c-8.4,36.1-30,78.5-68.6,97.9c-28.8,14.5-61.3,13-96.4-4.5c-17.2-5.7-32.7-17.9-49.3-30.9c-6.8-5.3-13.9-10.9-21.4-16.2c-8-5.7-16.3-11.3-24.4-16.6c-14.6-9.7-29-19.2-41.6-29.7h-1.3c12.9,10.8,27.5,20.5,42.5,30.4C778.8,35.7,787.1,41.2,795.2,47z"/>
<path d="M1073.9,61.8c5.2,12.7,16.8,18.9,35.3,18.9c9.4,0,19.1-1.6,27-2.9h0.2c1.7-0.3,3.5-0.4,5.5-0.4c7.4,0,14.9,2.2,22.2,4.3c3.7,1.1,7.7,2.2,11.4,3c3.1,0.7,6.1,1.2,9.1,1.9c12.4,2.4,25.4,5,37,10.3c4.6,2.1,9.3,4.2,13.9,6.1c22.8,9.9,46.3,20.1,61.6,39.9c0.9,1.2,1.8,2.5,2.7,3.7c10.7,15.8,19.9,32.8,28.8,49.2c10,18.6,20.4,37.6,32.9,55.1c12.1,17,28.4,35.9,44.1,54.1c5.5,6.4,10.6,12.4,15.6,18.3c25,29.6,48.6,57.5,92.1,57.5h0.1c11.1,0,22.9-1.8,36.2-5.3c37.7-10.1,104.2-35.5,127-90.5c6-14.6,10-34.9,14.3-56.4c3.2-16.2,6.6-33,10.9-47V179c-4.7,14.5-8.2,32.3-11.6,49.5c-4.3,21.5-8.3,41.8-14.3,56.3c-22.6,54.7-88.9,79.9-126.5,90c-13.2,3.6-25,5.3-36,5.3h-0.1c-43.1,0-66.7-27.8-91.5-57.3c-5-5.9-10.2-11.9-15.7-18.2c-15.7-18.2-32-37.1-44.1-54c-12.4-17.4-22.8-36.6-32.8-55c-8.9-16.5-18.2-33.5-28.8-49.3c-0.8-1.2-1.8-2.6-2.7-3.8c-15.4-19.9-39-30.2-61.8-40.1c-4.7-2-9.4-4.1-13.9-6.1c-11.8-5.4-24.7-8-37.2-10.4c-3.1-0.6-6.1-1.2-9.1-1.8c-3.7-0.8-7.6-1.9-11.4-3c-7.3-2.1-14.9-4.4-22.4-4.4c-1.9,0-3.9,0.2-5.6,0.4L1136,77c-7.7,1.3-17.4,2.8-26.7,2.8c-18.1,0-29.5-6-34.6-18.3c-5.3-12.7-3.5-34.2-1.9-53.3c0.2-2.9,0.5-5.6,0.7-8.3h-0.8c-0.2,2.7-0.4,5.4-0.6,8.2C1070.4,27.3,1068.7,49,1073.9,61.8z"/>
<path d="M1400.2,24.2c23.4,31.7,65,50.6,111.2,50.6c11.5,0,22.6-1.2,33.2-3.5c41.1-9.1,54.2-37.1,60-71.3h-0.8c-1.8,10.9-4.4,21-8.3,30.1c-9.5,21.9-25.8,34.8-51.1,40.4c-10.5,2.3-21.6,3.5-33,3.5c-45.9,0-87.2-18.8-110.5-50.3c-2.6-6.7-4.8-14.9-6.9-23.7h-0.8C1395.2,9,1397.5,17.2,1400.2,24.2L1400.2,24.2z"/>
<path d="M1176.3,40.8c20.9,3,40.8,9.2,60,15.2c12.4,3.9,25.2,7.9,38.3,11c8.3,2,16.6,3.6,24,4.7c7.5,1.1,14.2,1.7,19.8,1.7l0,0c11.4,0,18.2-2.4,20.3-7.1c5.8-12.6,10.3-39.9,10.6-66.4h-0.8c-0.2,26.4-4.7,53.5-10.4,66.1c-2,4.4-8.7,6.5-19.7,6.5c-5.5,0-12.1-0.5-19.6-1.6c-7.4-1.1-15.6-2.7-23.9-4.7c-13-3.1-25.8-7.1-38.2-11c-19.3-6-39.2-12.3-60.2-15.3c-20.6-2.9-37.1-17.1-46.8-39.9h-0.9C1138.4,23.3,1155.2,37.7,1176.3,40.8z"/>
<path d="M1636.3,20.4c-1.1,29-2,54.1-21.3,69c-20.1,15.5-55.1,19.9-80.7,23.1c-2.5,0.4-5.1,0.7-7.4,1c-4.4,0.6-9,0.9-13.7,0.9l0,0c-26.1,0-53.9-8.8-80.7-17.2c-24.1-7.5-48.9-15.3-72.1-16.7h-0.1l-0.1,0.1c-13.3,3.8-16.6,17.9-15.3,29.9c3.8,46.8,20.2,85.1,57,132.2c7.4,9.4,14.3,19.1,21,28.4c11.4,15.7,22.2,30.6,34.7,44.6c18.8,21.2,42.4,31.8,70.2,31.8l0,0c32.2,0,68.4-15,99.4-41.2c31.9-34.6,36.7-80.3,38.9-124.3c0.2-3.4,0.2-7,0.4-10.8c0.5-17.6,1-39.6,9.7-50.5c7.6-9.6,16.6-16.9,25.8-23.4v-0.9c-9.4,6.6-18.6,14-26.4,23.9c-8.8,11-9.3,33.1-9.9,50.8c-0.1,3.8-0.2,7.4-0.4,10.8c-2.1,43.8-6.9,89.5-38.6,123.8c-30.8,26.1-66.8,41.1-98.8,41.1c-27.5,0-51-10.7-69.6-31.6c-12.5-14.1-23.3-28.9-34.7-44.7c-6.7-9.3-13.6-18.8-21-28.3c-36.6-47-53.1-85.2-56.8-131.8c-1.3-11.6,1.8-25.4,14.6-29c23.1,1.4,47.8,9.1,71.8,16.6c27,8.4,54.8,17.2,81,17.2l0,0c4.7,0,9.4-0.4,13.9-0.9c2.4-0.4,4.9-0.6,7.4-0.9c25.7-3.2,60.9-7.7,81-23.3c19.6-15.1,20.6-40.3,21.7-69.6c0.2-6.1,0.4-12.4,0.8-18.7c0.1-0.6,0.1-1.1,0.2-1.7h-0.8c0,0.6-0.1,1.1-0.1,1.7C1636.7,8,1636.5,14.3,1636.3,20.4z"/>
<path d="M1648.5,411.2l-0.1,0.1c-5.4,4.3-13.6,10.9-12.7,19.9l0.1,0.2l0.1,0.1c1.8,1.4,3.3,3,4.7,4.5l0.1,0.1h0.1c10,2,20.2,3.1,30.3,3.1l0,0c10.4,0,20.7-1.1,30.8-3.2v-0.8c-10.1,2.1-20.4,3.2-30.8,3.2c-10.1,0-20.2-1-30-3c-1.4-1.5-2.8-3-4.5-4.4c-0.8-8.5,6.8-14.6,12.4-19l0.1-0.1c9.6-7.6,22.2-13.4,35.6-19.5c5.8-2.6,11.6-5.3,17.2-8.1v-0.9c-5.8,2.9-11.7,5.7-17.6,8.3C1670.8,397.6,1658.1,403.4,1648.5,411.2z"/>
<path d="M1682.9,6.7c0.9,10.9,9.7,20.6,18.9,20.6v-0.8c-8.8,0-17.3-9.3-18.1-19.8c-0.2-2.3-0.2-4.5-0.1-6.6h-0.8C1682.7,2.1,1682.6,4.4,1682.9,6.7z"/>
<path d="M1572.9,152.7c-5.2,0-10.7,0.6-16.2,1.6c-12,2.4-24.9,6.1-38.6,10.1c-15.3,4.5-31.2,9.2-46.3,11.8c-14,2.5-20.1,8.7-18.5,19v0.1c4.9,10.3,8.7,21.8,12.7,34c8.6,26.5,17.6,54,39.3,68.2c10.3,6.7,22.8,10.2,36.2,10.2l0,0c21.8,0,44-9.1,59.7-24.4c12.9-12.6,22.2-33.1,25.1-54.9c3.1-22.9-1.5-44.7-12.7-59.7C1606.2,158.9,1590.6,152.7,1572.9,152.7z M1600.6,282.9c-15.5,15.2-37.6,24.2-59.1,24.2c-13.3,0-25.6-3.5-35.7-10.1c-21.6-14.1-30.4-41.3-39.1-67.8c-4-12.2-7.7-23.7-12.6-34c-1.5-9.9,4.1-15.7,17.8-18c15.1-2.7,31.1-7.3,46.5-11.9c13.6-4,26.5-7.8,38.4-10.1c5.5-1.1,10.9-1.6,16-1.6c17.5,0,32.9,6.1,40.2,15.9C1637.3,201.8,1626.1,258.1,1600.6,282.9z"/>
<path d="M669.3,504c4,7.6,8.1,15.5,11.6,23.2c3.1,6.7,6.1,13.7,9.1,20.5c18.3,41.7,37.3,84.9,64.9,119.5c10.6,13.3,23.4,26,35.7,38.3c11.9,11.7,23,22.8,31.9,34c4.4,5.3,8.1,11.1,11.7,16.8c7.6,11.8,14.8,22.9,26.8,30.6l0.1,0.1l3.4-0.2c45.8-2.7,85.4-5.1,127.5-12.7c30-5.4,51.2-11.3,62.9-17.3c24.2-12.4,30.8-34.7,37.9-58.3c0.8-2.4,1.5-4.9,2.2-7.4c10.3-33.4,25.1-67.2,63.6-88.4l0.1-0.2c0.3-0.4,0.6-0.7,0.9-1.1c8-4.2,15.9-8.4,23.9-12.7c13.9-7.3,28.3-15,42.5-22.3c6.1-3.2,12.2-6.5,18.2-9.6c9.3-5,19-10.1,28.5-14.9c6.6-3.2,12.4-7.6,18.2-11.9c1.4-1.1,2.9-2.2,4.3-3.2c5.3-3.9,11.2-7.8,17.9-10.4c12.6-5,26.6-5.5,40.1-6.2c11.7-0.5,23.7-1.1,35-4.4c10.8-3.1,18.3-5.9,24.5-15.1c20.2-29.5,10-51.6-6.6-79.4c-17.5-29.3-38.7-52.1-63.2-67.8c-4.4-2.8-9.1-5.1-13.7-7.2c-5.1-2.4-10.4-4.9-15.1-8.2c-5.5-3.8-10.8-7.9-15.9-11.9c-4.2-3.2-8.4-6.6-12.8-9.8c-17.8-12.8-39-27-62.8-35.4c-7.9-2.8-17.3-3.3-23.8-3.3c-6.5,0-13.4,0.6-19.2,1.7c-7.4,1.4-13.3,4.7-19.6,8.1c-2.7,1.5-5.5,3-8.4,4.4c-3.2,1.4-6.5,2.5-9.7,3.7c-4.2,1.4-8.4,2.9-12.3,5.1c-9.7,5.3-19.1,11.5-28.1,17.5c-8.7,5.8-17.8,11.7-27,16.9c-43.8,24.6-81.3,38.5-117.8,43.8c-10.9,1.6-22,2.4-32.9,2.4c-13.6,0-27.2-1.2-40.3-3.7c-10.3-1.9-20.8-4.8-31.1-7.7c-18-5-36.5-10.2-54.7-10.2c-10,0-19,1.5-27.6,4.7c-17.3,6.4-32.8,19.6-49.2,33.6c-8.4,7.1-17,14.5-26.4,21.5c-2.1,1.5-4.8,3.4-7.8,5.4c-6.7,4.7-15,10.5-22.1,16.5c-13.3,11.4-16.9,21.8-12.6,36C656.2,479.1,662.5,491.2,669.3,504z"/>
<path d="M739.1,557.5l1.5,5.8c16,59.5,39.7,94.7,87.6,129.8l1.1,0.9c25.8,18.9,48.1,35.3,72.8,43.1c12.4,4,27.5,6.1,43.8,6.1c0.1,0,0.1,0,0.1,0c21.5,0,43.5-3.8,58.6-10c40.1-16.6,54.7-51.6,71.6-92.3c22.2-53.3,61.1-122.2,120-148c10.7-4.7,21-5.6,31.9-6.6c4.2-0.4,8.6-0.8,13-1.4c16.7-2.4,35.3-5.8,57.1-10.5c3.1-0.6,6.1-1.3,9.2-2c15.9-3.5,37-13.6,43.9-30.1c5.1-12.2,4.4-23.4-2.1-33.1c-19.2-28.9-85.5-38.8-112.7-38.9h-0.5c-12,0-24.4,1.2-36.3,2.5c-6.8,0.7-13.7,1.5-20.5,1.9c-11.4,0.8-20.8,4.1-32.3,11.3c-11.9,7.4-24.6,11-40,11c-11.5,0-23.2-1.9-35.5-3.8c-3.7-0.7-7.6-1.2-11.5-1.8c-16.2-2.4-33.4-3.4-54.6-3.4c-13.1,0-26.3,0.4-39,0.8c-12.7,0.4-25.7,0.8-38.6,0.8c-23.4,0-42.3-1.4-59.6-4.4c-5.1-0.9-10.6-2.2-16.4-3.6c-12.5-3-26.7-6.4-40.9-6.4c-7.8,0-14.9,0.9-21.5,2.9c-32.9,9.9-60.3,50.1-65.4,81.5c-1.9,11.7-1.6,23.8,0.8,37.9C728.6,518.7,733.7,537.5,739.1,557.5z"/>
<path d="M1629.7,543l-0.1,0.2c-1.8,3.3-3.6,6.1-5.2,8.6c-5.5,8.9-8.8,14.3-10.6,29.1c-1.3,11.7-0.8,23.7-0.4,35.3c0.5,13.7,1.1,27.8-1.2,41.8c-8.1,49.4-47.5,100.4-91.5,118.5c-4.2,1.7-10.1,4-14.1,4.7c-3.2,0.5-6.2,0.9-9,0.9l0,0c-25.9,0-31.8-25.5-37.6-50.1c-1.4-5.5-2.7-11.1-4.2-16.4c-5.9-20.2-13.9-33.6-25.7-43.5c-12-9.8-28.1-16.2-52.2-20.6c-9.8-1.8-18.8-2.7-27.5-2.7c-16.8,0-32.8,3.1-53.6,10.4c-0.9,0.3-1.8,0.6-2.7,0.9c-11.6,4-21.4,7.4-28.4,18.2c-13.3,20.9-24.2,54.6-19,78.5c5,23.4,22,28.1,39.9,33c3.5,0.9,7,1.9,10.5,3c5.5,1.8,9.9,3.7,13.7,5.8c27.1,15.2,57,29,94.3,43.4c31.6,12.2,46.9,39.1,61.8,64.9c14.5,25.1,29.3,51.1,59,63.5c4.5,1.9,9.6,2.9,15.2,2.9l0,0c6.5,0,13.8-1.4,21.6-4.1c21.2-7.4,40.1-30.1,54.3-49c22.2-29.7,49.7-66.7,82.3-90.5c0.9-0.6,1.7-1.2,2.6-1.8v-1c-1,0.7-2,1.4-3.1,2.2c-32.7,23.8-60.3,60.8-82.5,90.6c-14,18.9-32.9,41.5-53.9,48.8c-7.7,2.7-14.9,4-21.4,4l0,0c-5.4,0-10.4-0.9-14.9-2.8c-29.4-12.3-44.2-38.2-58.6-63.2c-14.9-26-30.4-52.9-62.2-65.2c-37.2-14.4-67.1-28.2-94.2-43.4c-3.8-2.2-8.3-4.1-13.9-5.8c-3.4-1.1-7-2.1-10.4-3c-17.8-4.9-34.5-9.5-39.4-32.4c-5.1-23.7,5.7-57.2,19-77.9c6.7-10.5,16.5-14,27.9-17.8c0.9-0.4,1.8-0.6,2.7-0.9c20.7-7.4,36.6-10.4,53.3-10.4c8.7,0,17.6,0.9,27.3,2.7c46.5,8.6,66.1,24.6,77.4,63.6c1.5,5.2,2.9,10.9,4.1,16.3c5.8,25,11.9,50.7,38.4,50.7l0,0c2.9,0,6-0.2,9.1-0.8c4.1-0.8,10-3,14.3-4.8c21.8-9,43.1-26.1,60-48.2c16.7-21.8,28-47,32-70.9c2.2-14,1.7-28.3,1.2-41.9c-0.5-11.6-0.9-23.6,0.4-35.2c1.6-14.6,5-19.9,10.4-28.8c1.5-2.4,3.2-5.2,5.2-8.6c15.5-12.6,34-19.1,54.7-19.1c5.5,0,11,0.5,16.8,1.4v-0.8c-5.7-0.9-11.3-1.4-16.8-1.4C1664,523.7,1645.5,530.2,1629.7,543z"/>
<path d="M1657.9,601.2c-4.1,11.9-4.8,24.1-5.7,38.3c-0.3,4.9-0.6,10-1.1,15.6c-1.9,21.5-6,43.6-10.1,65c-4,21.2-7.7,41.2-8.4,56.9v0.2l0.2,0.1c2.5,1.8,5.1,3.6,8.3,3.6c0.6,0,1.2-0.1,1.7-0.2l0.1-0.1c7.9-4.5,16.3-8.7,24.5-12.7c11.7-5.7,23.5-11.4,34.5-18.8v-0.9c-11,7.5-23,13.3-34.7,19c-8.2,4-16.7,8.1-24.6,12.7c-0.5,0.1-0.9,0.1-1.4,0.1c-2.9,0-5.4-1.6-7.7-3.2c0.7-15.6,4.4-35.5,8.4-56.6c4.1-21.4,8.3-43.5,10.1-65.1c0.5-5.5,0.8-10.7,1.1-15.6c0.9-14.2,1.6-26.3,5.7-38.1c5.5-16.2,19-26.8,34.4-26.8c2.9,0,5.8,0.4,8.7,1.1V575c-2.9-0.7-5.8-1.1-8.7-1.1C1677.4,574,1663.6,584.6,1657.9,601.2z"/>
<path d="M1352.9,707.7c-14.9,0-29.9,7.3-30,23.7v0.1c4.6,16,26.8,35.6,46.2,35.6l0,0c4.8,0,9.1-1.2,12.9-3.6c5.4-3.6,8.9-8.9,10.1-15.4c1.5-8.4-1-18.4-6.4-25.7C1379,713.4,1366.4,707.7,1352.9,707.7z M1391.3,747.9c-1.1,6.3-4.5,11.4-9.8,14.9c-3.5,2.4-7.7,3.5-12.4,3.5c-19.1,0-40.9-19.2-45.4-34.9c0.2-15.8,14.8-22.8,29.3-22.8c13.3,0,25.6,5.4,32.1,14.3C1390.3,729.9,1392.8,739.7,1391.3,747.9z"/>
<path d="M1612.2,805.7l-0.2-0.1c-1.4-0.5-3-0.8-4.6-0.8c-6.7,0-13.9,4.2-20.8,8.2c-2.6,1.5-5.2,3-7.8,4.3c-1.5,0.8-2.9,1.5-4.5,2.2c-22.8,11.1-53.9,26.5-51.7,62.9c3.1,11.3,12.6,22.8,26.6,22.8l0,0c1.2,0,2.6-0.1,4-0.4c25.5-10.6,40.7-40.1,51.2-64.8l0.8-1.8c4.7-11.1,10-23.5,7.1-32.4L1612.2,805.7z M1604.4,837.9l-0.8,1.8c-10.4,24.5-25.6,54-50.7,64.3c-1.3,0.2-2.5,0.3-3.8,0.3l0,0c-13.6,0-22.8-11.1-25.8-22.1c-2.2-35.8,28.8-51,51.3-62c1.5-0.8,3.1-1.5,4.5-2.2c2.6-1.2,5.2-2.8,7.9-4.3c6.8-4,13.9-8.1,20.4-8.1c1.4,0,2.8,0.2,4.2,0.6C1614.3,814.9,1609,827.1,1604.4,837.9z"/>
<path d="M1332.3,1084.8c-7.5-6.9-15-10.5-22.4-10.5c-17.3,0-28.8,19.8-31.2,39.2c-1.8,14.8-1.4,30.7,1.1,43.9c2.5,12.9,7.7,19.4,18.4,23.1c2.4,0.8,5.4,1.6,8.9,2.3c5.7,1.2,10.7,1.8,15.4,1.8l0,0c12.4,0,21.5-4.3,27-12.8c6.3-9.7,5.3-32.3,3.7-44.2C1351,1110.7,1343.4,1095,1332.3,1084.8z M1348.9,1171.4c-5.3,8.3-14.2,12.4-26.3,12.4c-4.6,0-9.6-0.5-15.2-1.7c-3.5-0.7-6.4-1.5-8.8-2.3c-10.6-3.6-15.4-9.7-17.8-22.5c-2.6-13-2.9-28.9-1.1-43.5c2.4-19.2,13.6-38.6,30.4-38.6c7.1,0,14.4,3.4,21.8,10.3c10.9,10.1,18.5,25.5,20.7,42.3C1354,1138.7,1355.1,1161.9,1348.9,1171.4z"/>
<path d="M83.2,1347.8c7.5-1.4,13.9-2.9,20.1-4.4c7.5-1.8,14.7-3.6,23.9-5c8.4-1.2,17.3-1.9,26-2.5c19.4-1.2,39.5-2.6,56.6-11.6c21.5-11.3,23.8-39.9,16.4-63.4c-12.4-39.7-28.5-67.1-49.1-83.9c-8.1-6.5-15.7-14.1-23-21.5c-14.8-14.7-30.1-29.9-50-37.9c-15.2-6.2-32.6-10.7-49.5-15.1c-10.2-2.7-20.7-5.4-30.7-8.5c-4.7-1.4-9.7-3.2-15-5.2c-2.9-1.1-5.9-2.1-9-3.2v0.8c2.9,1.1,5.8,2.1,8.7,3.1c5.4,1.9,10.4,3.8,15.1,5.2c10,3.1,20.5,5.8,30.7,8.4c16.9,4.4,34.3,9,49.5,15.1c19.7,8,34.9,23.2,49.6,37.7c7.4,7.4,15,15,23.1,21.5c20.5,16.6,36.4,43.9,48.8,83.6c7.3,23.1,5.1,51.3-16,62.3c-17,8.9-36.9,10.3-56.3,11.6c-8.7,0.5-17.6,1.2-26.1,2.5c-9.3,1.5-16.8,3.2-24,5c-6.1,1.5-12.4,3.1-20,4.4c-13.9,2.5-28,4.4-41.6,6.1c-14.4,1.9-28.4,3.8-41.5,6.3v0.8c13-2.5,27.1-4.4,41.6-6.3C55.3,1352.1,69.4,1350.3,83.2,1347.8z"/>
<path d="M65.4,1300.1c17.9-5.1,36.5-10.3,54.1-18c17.4-7.5,35-16.4,42.9-34.2c10.1-23.2,0.2-48.3-26.5-66.9c-4.7-3.2-9-6.4-13.3-9.6c-17.9-13.2-34.9-25.5-59.3-30.3c-15.8-2.9-39.2-4.8-63.2-5.4v0.8c23.9,0.5,47.3,2.3,63.1,5.3c24.2,4.7,41.1,17,58.9,30.1c4.3,3.1,8.7,6.4,13.3,9.6c26.5,18.4,36.3,43.1,26.2,65.9c-7.7,17.5-25.2,26.4-42.4,33.8c-17.6,7.7-36.1,12.9-54,18c-9.3,2.6-19,5.4-28.4,8.4c-12,3.9-24.6,6.4-36.7,8.7v0.8c12.3-2.4,24.9-4.8,37-8.7C46.4,1305.4,56,1302.7,65.4,1300.1z"/>
<path d="M59.7,1393.9c18.1,0.7,36.7,1.3,55-0.5c16.8-1.7,32.1-5.1,47.1-8.6c3.7-0.8,7.4-1.7,11.1-2.4c2.8-0.6,5.5-1.2,8.3-1.8c28.4-6.1,57.9-12.3,81.8-28.6c27.9-18.9,31.6-58.7,18.8-86.1c-11.6-25.1-31.1-45-49.9-64.2c-15.6-15.9-31.8-32.3-43.4-51.8c-5.3-7.1-9.7-13.9-13.9-20.5c-13.7-21.2-24.5-38-53.2-44.7c-55.3-12.9-103.1-24.1-112-79.2c-3.1-19.5,1.2-34.8,5.3-49.6c3.3-11.7,6.4-22.8,5.7-35.3l-0.1-0.2l-0.1-0.1c-1.5-1.4-2.9-2.8-4.2-4.2c-1.8-1.9-3.7-3.8-5.8-5.4l-0.1-0.1H9.9c-3.8,0.2-7.1,0.8-9.9,1.4v0.8c2.8-0.6,6.1-1.1,9.9-1.4c2,1.6,3.8,3.4,5.6,5.2c1.4,1.4,2.7,2.8,4.2,4.1c0.7,12.4-2.4,23.4-5.7,34.9c-4.1,14.9-8.4,30.2-5.3,49.9c9,55.7,57,66.9,112.6,79.9c28.4,6.6,39.2,23.3,52.7,44.4c4.2,6.7,8.7,13.5,14,20.5c11.6,19.5,27.8,36,43.4,52c18.8,19.2,38.2,38.9,49.8,63.9c12.5,27.2,9,66.4-18.6,85.2c-23.9,16.2-53.2,22.5-81.5,28.4c-2.8,0.6-5.6,1.2-8.4,1.8c-3.7,0.8-7.4,1.6-11.1,2.5c-14.9,3.3-30.3,6.8-47,8.5c-18.2,1.9-36.7,1.2-54.8,0.5c-20.9-0.7-40.8-1.4-59.7,1.5v0.8C18.9,1392.5,38.8,1393.3,59.7,1393.9z"/>
<path d="M610.6,1215.3c2.6,1.2,5,2.4,7,3.8c9.3,6.7,17.2,15.9,22.2,22.5c12.7,16.6,20.2,32.5,25.1,53.4c6.9,29.2,25.2,40.8,54.5,50.9c16.8,5.8,35.3,8.9,53.7,8.9c9.3,0,18.4-0.8,27-2.4c31.6-5.7,51.9-24.8,55.6-52.6c0.8-5.8,1.9-11.9,3-17.7c4.3-23.6,8.7-48-5-69.8c-11.2-17.7-32.4-20.2-53.6-20.2c-4.1,0-8.3,0.1-12.1,0.2c-3.9,0.1-7.9,0.2-11.7,0.2c-7.7,0-13.3-0.4-18.2-1.1c-16.9-2.7-33.8-6.8-50-10.9c-26.8-6.5-52.1-12.9-77.4-12.9c-5.4,0-10.7,0.4-15.7,0.9c-6.4,0.8-12.2,6.3-15.7,14.9c-3.2,8-4.1,18.8,0.9,24.9C602.8,1211.5,606.8,1213.4,610.6,1215.3z"/>
<path d="M756.3,1321.7c9.4,0,19.2-1.7,23.8-3.1c1.4-0.5,2.8-1,4-1.6c7.7-3.6,12.1-9.7,12.3-17.2c0.1-5.8-2.5-12.1-6.9-16.6c-6.1-6.3-14.6-8.6-22.8-6.1c-8.8,2.7-27.4,13.3-32.9,24.8c-1.9,4-2.2,7.8-0.8,11.3C735.8,1320.2,747.2,1321.7,756.3,1321.7z"/>
<path d="M1000.5,1620.2c-0.2-1.8-0.1-3.7-0.1-5.7c0.1-2.1,0.1-4.1-0.1-6.3c-1.5-12.9-6.8-28.6-12.3-45.2c-5.7-17-11.5-34.5-14.3-51.4c-1.1-7.1-1.9-14.7-2.7-22.1c-2.3-24.1-4.7-48.8-21.5-59.9c-7.6-5.1-18.8-7.4-35-7.4c-9.1,0-18.9,0.7-28.5,1.4c-3.7,0.2-7.5,0.5-11.2,0.8c-33.2,2-102.3,10.6-126.5,28.9c-32.9,25-36.9,67.8-36.3,106.5c3.9,48.7,37.2,75.9,73.8,103.4h1.3c-36.8-27.6-70.4-54.7-74.4-103.5c-0.5-38.4,3.5-81,36.2-105.8c23.9-18.2,92.8-26.8,126-28.8c3.7-0.2,7.5-0.5,11.3-0.8c9.6-0.7,19.3-1.4,28.4-1.4c16.1,0,27.1,2.3,34.6,7.3c16.5,10.9,18.8,35.4,21.2,59.3c0.6,7.4,1.4,15,2.6,22.1c2.8,16.9,8.6,34.5,14.3,51.6c5.5,16.6,10.8,32.2,12.2,45c0.2,2.1,0.2,4.2,0.1,6.1c-0.1,2.1-0.1,4,0.1,5.8c1.6,12.7-0.1,27.8-4.4,42.9h0.8C1000.4,1648,1002.1,1632.8,1000.5,1620.2z"/>
<path d="M112.5,1625.9c-0.5-11.2-0.2-22.5,0.2-33.4c0.5-16.7,1.1-32.6-1.8-45.3c-7-31.3-46.5-53.7-81.1-64.2c-10.3-3.1-19.7-4.2-29.8-3.4v0.8c10-0.8,19.4,0.3,29.6,3.4c34.4,10.4,73.6,32.6,80.5,63.5c2.9,12.7,2.4,28.5,1.8,45.1c-0.4,11-0.8,22.2-0.2,33.4c0.6,13.3,0.1,25.9-1.2,37.3h0.8C112.6,1651.8,113.1,1639.2,112.5,1625.9z"/>
<path d="M959.4,1613c-1.5-7.6-4.2-16.8-7.2-26.6c-4.2-14.1-9-30.1-11.4-46.3c-0.7-4.6-1.3-9-1.9-13.2c-3.8-27.7-6.8-49.6-25.4-64.1c-12.6-9.9-36.2-15.7-63.1-15.7c-32.7,0-63.2,8.3-81.5,22.1c-30,22.7-31.2,62.8-27,92.4c6.6,31.6,29.3,47.8,58,68.5c13.4,9.6,27.3,19.5,41.3,32.3c0.4,0.3,0.7,0.7,1.1,1h1.2c-0.7-0.5-1.2-1.1-1.8-1.6c-14.1-12.8-28.6-23.2-41.3-32.4c-28.6-20.5-51.2-36.7-57.7-67.9c-4.3-29.4-3.1-69.1,26.7-91.6c18-13.7,48.4-21.9,80.9-21.9c26.7,0,50.1,5.8,62.6,15.6c18.3,14.3,21.2,36,25,63.5c0.7,4.3,1.2,8.7,1.9,13.2c2.5,16.3,7.3,32.4,11.5,46.4c2.9,9.8,5.7,19,7.1,26.5c3.1,16.2,1.9,33.9-3.1,50.1h0.8C961.3,1646.9,962.5,1629.1,959.4,1613z"/>
<path d="M386,1566c-3.3-11.6-5.8-33.4-4-48.6c0.4-3,1.2-6.4,2.1-9.9c3.1-12.3,7-27.5-8.4-38.5l-0.1-0.1h-0.1c-28.6-3.4-45.9,20.1-61.2,40.7c-4,5.5-7.7,10.5-11.6,15.2c-13.9,14.6-32.9,25-53,36.2c-31.1,17.3-63.3,35.2-78.4,70c-4.4,9.8-8.1,21.2-11.7,32.3h0.8c3.6-11.1,7.3-22.4,11.5-32c15.1-34.6,47.1-52.3,78.2-69.5c20.1-11.1,39.1-21.6,53.1-36.4c4-4.6,7.7-9.7,11.7-15.1c15.2-20.5,32.3-43.7,60.3-40.5c14.8,10.7,11.2,25,8,37.6c-0.9,3.5-1.8,7-2.2,10c-1.8,15.2,0.6,37.2,4,48.8c5.1,17.9,12.5,35.8,20.2,54.9c5.7,13.7,11.4,27.8,16.4,42.1h0.8c-5-14.4-10.9-28.6-16.5-42.4C398.4,1601.8,391.1,1583.8,386,1566z"/>
<path d="M837.7,1470.9c-17.7,0-35.2,5.2-46.7,13.9c-15,11.3-23.9,24.8-22.3,57.7c10.2,41.9,55.7,64.5,93.3,64.5l0,0c4.9,0,9.6-0.4,14.3-1.1h0.1l0.1-0.1c5.1-4.2,10-9.4,14.9-15.9l0.1-0.2c13.8-42.6,13.1-78.1-1.7-97.2C879.1,1478.8,860.1,1470.9,837.7,1470.9z"/>
<path d="M643.7,1588.4c-6-28.7-12-58.2-30.7-81.8c-9.6-12.1-21.5-16.8-36.5-14.6c-30.9,4.6-67.7,32.6-87.4,47.7c-22.1,23.1-30.4,51-25.5,85.3c1.8,12.2,5.2,25.3,8.8,38.2h0.8c-3.6-12.9-7.1-26.1-8.8-38.3c-4.9-34.1,3.4-61.8,25.2-84.6c19.6-14.9,56.3-42.9,87-47.4c2.4-0.4,4.7-0.5,6.8-0.5c11.6,0,21,4.8,28.9,14.8c18.6,23.4,24.7,52.8,30.6,81.3c5.2,25.7,10.7,52.3,25.4,73.7c0.2,0.4,0.4,0.7,0.7,1h0.9c-0.3-0.4-0.7-0.9-1.1-1.4C654.4,1640.5,649,1614,643.7,1588.4z"/>
<path d="M39.2,1560.2c-9.9-12.1-19-17-39.2-20.8v0.8c19.8,3.7,28.8,8.6,38.6,20.5c17.2,21.2,27.7,60.6,30.3,88.2c0.5,5.1,0.7,9.9,0.7,14.3h0.8c0-4.4-0.2-9.3-0.6-14.4C67.1,1621,56.4,1581.4,39.2,1560.2z"/>
<path d="M546.7,1570.6c-1.1,0-2.3,0-3.5,0.1c-10.8,0.9-20.3,5.9-27.5,14.5c-10.3,12.3-14.9,31-12.9,52.8c0.8,8.4,2.1,16.9,4,25.3h0.8c-1.8-8.4-3.2-16.9-4-25.4c-1.9-21.6,2.5-40.1,12.7-52.3c7.1-8.4,16.4-13.3,27-14.2c1.2-0.1,2.3-0.1,3.4-0.1c32,0,43.9,38.2,54.3,71.7c2.2,7.1,4.3,14,6.5,20.2h0.9c-2.3-6.3-4.4-13.3-6.7-20.5C591.3,1608.9,579.4,1570.6,546.7,1570.6z"/>
<path d="M329.2,1602.3c-5.4-0.8-10.8-1.1-16.2-1.1c-21.7,0-43,5.9-61.5,17c-18.1,11-32.8,26.5-42.6,45h0.9c20.2-37.9,59.5-61.3,103.3-61.3c5.4,0,10.8,0.4,16.2,1.1c23.3,3.2,46.3,22.5,62.9,53c1.3,2.4,2.6,4.8,3.7,7.2h0.8c-1.2-2.5-2.5-5.1-3.8-7.5C376,1624.9,352.8,1605.5,329.2,1602.3z"/>
<path d="M1411,1586.6c-9.3-17.1-19-34.9-26.7-53.2c-4.2-10-8.1-21-12.1-32.7c-17.3-49.8-37-106.3-97.9-106.3c-0.8,0-1.6,0-2.4,0c-22.1,0.5-42.9,8.3-56.5,14.7c-3.3,1.5-6.7,3.1-10.1,4.7c-10.2,4.7-20.8,9.5-30.3,14.7c-27.7,15.3-59.4,22.7-90,30l-0.4,0.1c-2.6,0.6-5.4,1.3-8.3,1.8c-20.5,4.4-46.1,9.9-54.2,33.7c-6.2,18.4-0.5,41.9,5,64.6c2,8.3,3.9,16.2,5.2,23.6c4.4,25.8,4.8,50.1,0.8,72.2c-0.5,2.8-1.1,5.7-1.8,8.7h0.8c0.7-2.9,1.2-5.7,1.8-8.6c3.9-22.2,3.7-46.6-0.8-72.4c-1.4-7.5-3.2-15.3-5.2-23.7c-5.5-22.6-11.1-46.1-5-64.2c8-23.5,33.3-28.8,53.6-33.1c2.9-0.6,5.7-1.2,8.3-1.9l0.4-0.1c30.7-7.2,62.5-14.7,90.2-30c9.4-5.2,19.9-10.1,30.1-14.8c3.5-1.5,6.8-3.1,10.1-4.7c13.5-6.4,34.3-14.1,56.2-14.6c0.8-0.1,1.6-0.1,2.4-0.1c60.3,0,79.8,56.2,97.1,105.9c4,11.6,7.8,22.6,12.1,32.7c7.8,18.4,17.4,36.1,26.8,53.3c8,14.6,15.5,28.3,22,42.5c6.4,14.2,13.2,25.3,20.4,33.6h1.1c-7.4-8.3-14.2-19.5-20.8-33.9C1426.5,1615.1,1419,1601.3,1411,1586.6z"/>
<path d="M1680,1437.5c-50.1,18.9-83.6,54.7-96.8,103.4c-3.7,13.6-6.3,31-8.8,47.8c-3.1,20.9-6.4,42.5-11.6,57.5c-2.3,6.4-5.5,12.1-9.6,17.1h0.9c4-5,7.2-10.6,9.4-16.8c5.4-15.1,8.6-36.7,11.7-57.6c2.5-16.8,5.1-34.2,8.8-47.7c13.1-48.4,46.4-84,96.3-102.9c4.1-1.5,11.2-3.5,17.2-4.7c1.4-0.2,2.8-0.5,4.3-0.7v-0.8c-1.5,0.3-3,0.5-4.5,0.8C1691.3,1434,1684.2,1435.9,1680,1437.5z"/>
</g>
</svg>
